<svg width="28" height="28" viewBox="0 0 28 28" fill="none" xmlns="http://www.w3.org/2000/svg">
<path d="M0 5C0 2.23858 2.23858 0 5 0H22.6777C25.4391 0 27.6777 2.23858 27.6777 5V22.6777C27.6777 25.4391 25.4391 27.6777 22.6777 27.6777H5C2.23858 27.6777 0 25.4391 0 22.6777V5Z" fill="#189AB4"/>
<mask id="path-2-inside-1_575:1429" fill="white">
<path fill-rule="evenodd" clip-rule="evenodd" d="M13.8388 10.3033L8.53553 5L5 8.53553L10.3033 13.8388L5.00001 19.1421L8.53555 22.6777L13.8388 17.3744L19.1421 22.6777L22.6777 19.1421L17.3744 13.8388L22.6777 8.53553L19.1421 5L13.8388 10.3033Z"/>
</mask>
<path fill-rule="evenodd" clip-rule="evenodd" d="M13.8388 10.3033L8.53553 5L5 8.53553L10.3033 13.8388L5.00001 19.1421L8.53555 22.6777L13.8388 17.3744L19.1421 22.6777L22.6777 19.1421L17.3744 13.8388L22.6777 8.53553L19.1421 5L13.8388 10.3033Z" fill="white"/>
<path d="M8.53553 5L9.24264 4.29289L8.53553 3.58579L7.82843 4.29289L8.53553 5ZM13.8388 10.3033L13.1317 11.0104L13.8388 11.7175L14.5459 11.0104L13.8388 10.3033ZM5 8.53553L4.29289 7.82843L3.58579 8.53553L4.29289 9.24264L5 8.53553ZM10.3033 13.8388L11.0104 14.5459L11.7175 13.8388L11.0104 13.1317L10.3033 13.8388ZM5.00001 19.1421L4.2929 18.435L3.5858 19.1421L4.2929 19.8492L5.00001 19.1421ZM8.53555 22.6777L7.82844 23.3848L8.53555 24.0919L9.24265 23.3848L8.53555 22.6777ZM13.8388 17.3744L14.5459 16.6673L13.8388 15.9602L13.1317 16.6673L13.8388 17.3744ZM19.1421 22.6777L18.435 23.3848L19.1421 24.0919L19.8492 23.3848L19.1421 22.6777ZM22.6777 19.1421L23.3848 19.8492L24.0919 19.1421L23.3848 18.435L22.6777 19.1421ZM17.3744 13.8388L16.6673 13.1317L15.9602 13.8388L16.6673 14.5459L17.3744 13.8388ZM22.6777 8.53553L23.3848 9.24264L24.0919 8.53553L23.3848 7.82843L22.6777 8.53553ZM19.1421 5L19.8493 4.29289L19.1421 3.58579L18.435 4.29289L19.1421 5ZM7.82843 5.70711L13.1317 11.0104L14.5459 9.5962L9.24264 4.29289L7.82843 5.70711ZM5.70711 9.24264L9.24264 5.70711L7.82843 4.29289L4.29289 7.82843L5.70711 9.24264ZM11.0104 13.1317L5.70711 7.82843L4.29289 9.24264L9.5962 14.5459L11.0104 13.1317ZM5.70712 19.8492L11.0104 14.5459L9.5962 13.1317L4.2929 18.435L5.70712 19.8492ZM9.24265 21.9706L5.70712 18.435L4.2929 19.8492L7.82844 23.3848L9.24265 21.9706ZM13.1317 16.6673L7.82844 21.9706L9.24265 23.3848L14.5459 18.0815L13.1317 16.6673ZM19.8492 21.9706L14.5459 16.6673L13.1317 18.0815L18.435 23.3848L19.8492 21.9706ZM21.9706 18.435L18.435 21.9706L19.8492 23.3848L23.3848 19.8492L21.9706 18.435ZM16.6673 14.5459L21.9706 19.8492L23.3848 18.435L18.0815 13.1317L16.6673 14.5459ZM21.9706 7.82843L16.6673 13.1317L18.0815 14.5459L23.3848 9.24264L21.9706 7.82843ZM18.435 5.70711L21.9706 9.24264L23.3848 7.82843L19.8493 4.29289L18.435 5.70711ZM14.5459 11.0104L19.8493 5.70711L18.435 4.29289L13.1317 9.5962L14.5459 11.0104Z" fill="black" mask="url(#path-2-inside-1_575:1429)"/>
</svg>
