<?xml version="1.0" encoding="utf-8"?>
<!-- Svg Vector Icons : http://www.onlinewebfonts.com/icon -->
<!DOCTYPE svg PUBLIC "-//W3C//DTD SVG 1.1//EN" "http://www.w3.org/Graphics/SVG/1.1/DTD/svg11.dtd">
<svg version="1.1" xmlns="http://www.w3.org/2000/svg" xmlns:xlink="http://www.w3.org/1999/xlink" x="0px" y="0px" viewBox="0 0 1000 1000" enable-background="new 0 0 1000 1000" xml:space="preserve">
<metadata> Svg Vector Icons : http://www.onlinewebfonts.com/icon </metadata>
<g><path d="M974.5,587.8c-7.8-4.2-17.2-4.1-24.9,0.5l-167.7,77.4v-44c0-10.2-2.1-20-5.9-28.8c122.3-26.6,214-135.3,214-265.6c0-150.2-121.8-272-272-272c-116,0-214.8,72.8-253.9,175.1c-42.6-71.6-120.5-119.7-209.9-119.7C119.4,110.7,10,220,10,355c0,89.3,48,167.1,119.5,209.7c-16.9,13.6-27.9,34-27.9,57.1v248.9c0,40.8,33.8,74,75.3,74h529.7c41.5,0,75.3-33.2,75.3-74v-13.8l167.7,77.4c7.6,4.6,17.1,4.8,24.9,0.5c7.8-4.3,12.6-12.3,12.6-21.1V609C987.1,600.2,982.3,592.1,974.5,587.8L974.5,587.8z M250.9,547.7c-31.3-1.5-56.3-27.2-56.1-58.9c0.1-32.5,26.7-78.8,59.2-78.6c32.5,0.1,58.7,46.6,58.6,79.1c-0.1,31.6-25.2,57.1-56.4,58.4H250.9L250.9,547.7z M717.1,542.2c-36.2-0.1-65.5-29.7-65.3-65.9c0.1-36.2,29.7-87.7,66-87.5c36.2,0.2,65.4,51.8,65.3,88.1C782.9,513.1,753.4,542.3,717.1,542.2z M867.6,262.3c36.2,0.1,65.5,29.6,65.4,65.9c-0.2,36.2-29.7,65.5-65.9,65.3c-36.2-0.2-87.7-30-87.5-66.2C779.7,291.1,831.4,262.2,867.6,262.3L867.6,262.3z M718.9,112.4c36.2,0.1,65.5,29.6,65.3,65.9c-0.2,36.2-29.6,85.1-65.9,84.9c-36.2-0.2-65.5-49.2-65.4-85.5C653.2,141.5,682.7,112.2,718.9,112.4L718.9,112.4z M569,261c36.2,0.2,87.8,30,87.7,66.2c-0.2,36.3-52,65.1-88.2,65c-36.2-0.2-65.5-29.6-65.3-65.9C503.3,290.2,532.8,260.9,569,261L569,261z M559.2,547.7H404c31.6-24.6,57-56.7,73.5-93.8C497.1,491.2,525.3,523.2,559.2,547.7z M388.6,296.6c32.5,0.1,58.8,26.6,58.7,59.2c-0.1,32.5-26.7,58.8-59.2,58.7c-32.5-0.1-78.8-26.9-78.6-59.5C309.6,322.4,356.1,296.5,388.6,296.6z M255.1,161.9c32.5,0.1,58.8,26.6,58.7,59.2c-0.1,32.5-26.6,76.4-59.2,76.3c-32.5-0.1-58.8-44.2-58.7-76.8C196,188.1,222.5,161.8,255.1,161.9L255.1,161.9z M61.3,354.2c0.1-32.5,26.6-58.8,59.2-58.7c32.5,0.2,78.9,26.9,78.7,59.5c-0.1,32.6-46.7,58.5-79.3,58.4C87.4,413.2,61.1,386.7,61.3,354.2z"/></g>
</svg>