<svg id="svg" xmlns="http://www.w3.org/2000/svg" xmlns:xlink="http://www.w3.org/1999/xlink" width="400" height="408.6206896551724" viewBox="0, 0, 400,408.6206896551724"><g id="svgg"><path id="path0" d="M166.379 8.750 C 19.518 33.449,-50.327 207.395,38.887 326.265 C 134.587 453.779,334.571 422.535,387.763 271.761 C 437.724 130.141,314.568 -16.173,166.379 8.750 M250.697 56.854 C 258.021 58.727,268.621 62.716,274.252 65.717 C 300.625 79.774,307.214 101.234,281.974 90.869 C 234.254 71.272,176.910 88.681,159.629 128.012 C 150.540 148.696,152.791 171.634,162.116 153.356 C 182.040 114.301,246.434 96.848,293.335 117.791 C 336.923 137.255,366.184 195.143,354.539 238.873 C 347.185 266.485,330.852 273.961,333.745 248.390 C 339.567 196.927,302.334 146.956,256.792 145.108 C 233.611 144.167,221.008 150.660,238.122 154.725 C 295.950 168.462,330.243 246.026,302.571 300.495 C 279.570 345.770,224.041 376.181,192.071 361.010 C 180.329 355.438,183.813 351.449,206.034 345.023 C 264.581 328.093,299.192 254.610,264.812 220.231 C 259.724 215.143,258.854 216.804,259.829 229.741 C 263.768 281.983,210.418 334.384,153.213 334.462 C 104.585 334.529,53.595 295.271,48.950 254.188 C 47.081 237.654,56.117 234.815,63.714 249.551 C 83.338 287.616,143.528 311.036,179.389 294.561 C 200.800 284.725,217.656 261.446,196.904 270.374 C 144.940 292.728,75.446 254.734,60.352 195.719 C 51.315 160.382,60.929 121.143,84.903 95.514 C 107.872 70.961,135.468 67.298,114.588 91.575 C 75.583 136.923,82.954 207.371,128.948 228.821 C 141.367 234.613,145.226 233.045,138.213 225.058 C 73.464 151.313,153.292 31.942,250.697 56.854 " stroke="none" fill="#000000" fill-rule="evenodd"></path></g></svg>