<?xml version="1.0" encoding="UTF-8" standalone="no"?>
<!DOCTYPE svg PUBLIC "-//W3C//DTD SVG 20010904//EN" "http://www.w3.org/TR/2001/REC-SVG-20010904/DTD/svg10.dtd">
<svg version="1.0" xmlns="http://www.w3.org/2000/svg" width="400.000000pt" height="409.000000pt" viewBox="0 0 400.000000 409.000000" preserveAspectRatio="xMidYMid meet">

<g transform="translate(0.000000,409.000000) scale(0.100000,-0.100000)" stroke="none" fill="#189ab4">
<path d="M1855 4024 c-16 -2 -72 -9 -124 -15 -52 -6 -147 -24 -213 -40 -748 -183 -1320 -783 -1484 -1559 -22 -105 -27 -159 -31 -343 -6 -252 3 -351 52 -543 122 -476 413 -887 826 -1165 696 -467 1652 -431 2334 90 85 64 256 232 328 321 272 337 427 752 444 1185 33 874 -546 1700 -1385 1975 -237 77 -549 117 -747 94z m665 -508 c141 -39 286 -113 364 -186 68 -64 101 -118 91 -150 -12 -36 -50 -35 -178 8 -178 59 -224 66 -392 67 -111 0 -171 -5 -230 -19 -367 -85 -613 -337 -632 -646 -7 -127 21 -133 88 -18 49 84 157 196 244 253 286 188 705 226 1033 94 224 -89 450 -322 563 -578 103 -234 127 -488 63 -680 -55 -161 -148 -257 -185 -188 -9 15 -12 72 -10 183 1 117 -2 182 -14 240 -86 415 -387 713 -749 740 -91 7 -219 -9 -254 -32 -35 -23 -15 -38 96 -74 162 -52 282 -128 399 -254 194 -206 303 -485 303 -768 0 -283 -101 -511 -325 -733 -147 -146 -298 -242 -475 -301 -74 -24 -101 -28 -205 -28 -115 -1 -123 0 -187 31 -58 27 -68 36 -68 57 0 32 22 44 193 102 201 69 310 135 443 269 262 264 356 625 229 875 -29 56 -92 130 -111 130 -15 0 -16 -4 -14 -137 2 -158 -30 -285 -108 -436 -166 -317 -505 -547 -869 -588 -224 -25 -494 50 -716 199 -167 112 -322 296 -381 452 -36 97 -47 227 -22 265 34 51 77 23 146 -96 56 -96 199 -239 303 -304 290 -178 631 -224 854 -115 121 60 253 180 253 231 0 27 -31 24 -130 -11 -116 -40 -215 -54 -335 -47 -459 28 -879 372 -990 813 -76 298 -18 627 155 885 119 176 365 349 440 309 38 -20 23 -56 -81 -193 -153 -201 -223 -404 -222 -642 1 -315 136 -560 378 -685 70 -37 145 -53 145 -32 0 5 -32 51 -72 103 -127 167 -186 324 -195 521 -14 302 101 591 327 818 166 167 339 262 572 315 104 24 348 14 468 -19z"/>
</g>
</svg>